<svg width="516" height="299" viewBox="0 0 516 299" fill="none" xmlns="http://www.w3.org/2000/svg">
<path d="M444.099 288.365L513.711 138.558L514.2 83.5144L444.099 236.202L444.099 288.365Z" fill="black"/>
<path d="M444.099 236.202L430.099 238.702L430.099 290.865L444.099 288.365L444.099 236.202Z" fill="black"/>
<path d="M350.099 255.585L430.099 290.865L430.099 238.702L350.099 202.202L350.099 255.585Z" fill="black"/>
<path d="M350.099 255.585L348.599 255.585L348.599 256.563L349.494 256.958L350.099 255.585ZM430.099 290.865L429.494 292.237L429.912 292.422L430.362 292.341L430.099 290.865ZM444.099 288.365L444.363 289.841L445.131 289.704L445.459 288.997L444.099 288.365ZM513.711 138.558L515.071 139.19L515.208 138.896L515.211 138.572L513.711 138.558ZM514.2 83.5144L515.7 83.5277L512.837 82.8885L514.2 83.5144ZM350.099 202.202L350.722 200.837L348.599 199.869L348.599 202.202L350.099 202.202ZM349.494 256.958L429.494 292.237L430.704 289.492L350.704 254.213L349.494 256.958ZM445.459 288.997L515.071 139.19L512.35 137.926L442.739 287.733L445.459 288.997ZM430.363 240.179L444.363 237.679L443.835 234.725L429.835 237.225L430.363 240.179ZM445.462 236.828L515.563 84.1403L512.837 82.8885L442.736 235.576L445.462 236.828ZM428.599 238.702L428.599 290.865L431.599 290.865L431.599 238.702L428.599 238.702ZM348.599 202.202L348.599 255.585L351.599 255.585L351.599 202.202L348.599 202.202ZM512.7 83.5011L512.211 138.545L515.211 138.572L515.7 83.5277L512.7 83.5011ZM443.835 286.888L429.835 289.388L430.362 292.341L444.363 289.841L443.835 286.888ZM442.599 236.202L442.599 288.365L445.599 288.365L445.599 236.202L442.599 236.202ZM349.476 203.567L429.476 240.067L430.722 237.337L350.722 200.837L349.476 203.567Z" fill="white"/>
<path fill-rule="evenodd" clip-rule="evenodd" d="M508.296 90.365H460.599L409.099 193.865L247.099 116.865L192.099 123.865V124.865L430.099 235.865L442.119 233.731L508.296 90.365ZM209.099 186.865L78.5993 202.865V232.865L257.099 210.365L209.099 186.865Z" fill="black"/>
<path d="M359.099 2.36499L2.09932 45.365L1.80347 267.984L19.5992 296.865L19.0993 72.365L379.599 28.9252V28.365L359.099 2.36499Z" fill="black"/>
<path d="M359.099 2.36499L360.277 1.43626L359.756 0.775065L358.92 0.875754L359.099 2.36499ZM2.09932 45.365L1.91994 43.8758L0.601085 44.0346L0.59932 45.363L2.09932 45.365ZM1.80347 267.984L0.303468 267.982L0.302902 268.408L0.526431 268.771L1.80347 267.984ZM19.0993 72.365L18.9199 70.8758L17.5964 71.0352L17.5993 72.3683L19.0993 72.365ZM19.5992 296.865L18.3221 297.652L18.8308 298.477L19.7924 298.352L19.5992 296.865ZM379.599 28.365H381.099V27.8448L380.777 27.4363L379.599 28.365ZM379.599 83.865L379.78 85.3541L381.099 85.1941V83.865H379.599ZM78.5993 120.365L78.4187 118.876L77.0993 119.036V120.365H78.5993ZM78.5993 232.865H77.0993V234.566L78.7869 234.353L78.5993 232.865ZM257.099 210.365L257.287 211.853L262.268 211.225L257.759 209.018L257.099 210.365ZM508.296 90.365L509.658 90.9936L510.641 88.865H508.296V90.365ZM430.099 235.865L429.465 237.224L429.895 237.425L430.361 237.342L430.099 235.865ZM442.119 233.731L442.381 235.208L443.152 235.071L443.481 234.36L442.119 233.731ZM192.099 177.865H190.599V178.768L191.397 179.191L192.099 177.865ZM192.099 123.865L191.91 122.377L190.599 122.544V123.865H192.099ZM247.099 116.865L247.743 115.51L247.346 115.321L246.91 115.377L247.099 116.865ZM409.099 193.865L408.455 195.22L409.786 195.852L410.442 194.533L409.099 193.865ZM460.599 90.365V88.865H459.67L459.256 89.6968L460.599 90.365ZM358.92 0.875754L1.91994 43.8758L2.27869 46.8542L359.279 3.85423L358.92 0.875754ZM0.59932 45.363L0.303468 267.982L3.30347 267.986L3.59932 45.367L0.59932 45.363ZM17.5993 72.3683L18.0992 296.868L21.0992 296.862L20.5993 72.3617L17.5993 72.3683ZM357.921 3.29372L378.421 29.2937L380.777 27.4363L360.277 1.43626L357.921 3.29372ZM379.419 82.3759L78.4187 118.876L78.7799 121.854L379.78 85.3541L379.419 82.3759ZM78.7869 234.353L257.287 211.853L256.912 208.877L78.4117 231.377L78.7869 234.353ZM257.759 209.018L209.759 185.518L208.44 188.212L256.44 211.712L257.759 209.018ZM0.526431 268.771L18.3221 297.652L20.8762 296.078L3.0805 267.197L0.526431 268.771ZM19.7924 298.352L352.89 255.083L352.504 252.108L19.406 295.377L19.7924 298.352ZM430.361 237.342L442.381 235.208L441.857 232.255L429.837 234.388L430.361 237.342ZM443.481 234.36L509.658 90.9936L506.935 89.7363L440.757 233.103L443.481 234.36ZM209.801 185.539L192.801 176.539L191.397 179.191L208.397 188.191L209.801 185.539ZM193.599 177.865V123.865H190.599V177.865H193.599ZM192.289 125.353L247.289 118.353L246.91 115.377L191.91 122.377L192.289 125.353ZM246.455 118.22L408.455 195.22L409.743 192.51L247.743 115.51L246.455 118.22ZM410.442 194.533L461.942 91.0332L459.256 89.6968L407.756 193.197L410.442 194.533ZM77.0993 120.365V202.865H80.0993V120.365H77.0993ZM77.0993 202.865V232.865H80.0993V202.865H77.0993ZM78.7819 204.354L209.282 188.354L208.917 185.376L78.4168 201.376L78.7819 204.354ZM378.099 28.365V28.9252H381.099V28.365H378.099ZM378.099 28.9252V83.865H381.099V28.9252H378.099ZM193.599 177.865V124.865H190.599V177.865H193.599ZM193.599 124.865V123.865H190.599V124.865H193.599ZM460.599 91.865H508.296V88.865H460.599V91.865ZM379.92 27.3758L379.42 27.436L379.779 30.4145L380.279 30.3542L379.92 27.3758ZM379.42 27.436L18.9199 70.8758L19.2788 73.8542L379.779 30.4145L379.42 27.436ZM191.465 126.224L429.465 237.224L430.733 234.506L192.733 123.506L191.465 126.224Z" fill="black"/>
</svg>
