<svg width="515" height="300" viewBox="0 0 515 300" fill="none" xmlns="http://www.w3.org/2000/svg" style="">
<path d="M360.599 2.89636L2.09937 45.8964V269.396" stroke="black" stroke-width="4" class="vaKxyWJi_0"></path>
<path d="M380.099 29.3964L19.0994 72.8964V296.396" stroke="black" stroke-width="4" class="vaKxyWJi_1"></path>
<path d="M359.099 2.89636L379.599 28.8964V84.3964L78.5994 120.896V233.396L257.099 210.896L209.099 187.396L79.5994 203.396" stroke="black" stroke-width="4" class="vaKxyWJi_2"></path>
<path d="M1.80347 268.516L19.5992 297.396L349.599 255.396L430.099 291.396L444.599 288.396L512.599 140.896V88.1969" stroke="black" stroke-width="4" class="vaKxyWJi_3"></path>
<path d="M192.099 125.396L430.099 236.396L442.926 234.644L511.366 88.9469" stroke="black" stroke-width="4" class="vaKxyWJi_4"></path>
<path d="M211.099 188.396L192.099 178.396V124.396L247.099 117.396L409.099 194.396L459.813 90.199H512.099" stroke="black" stroke-width="4" class="vaKxyWJi_5"></path>
<path d="M430.099 235.896V290.896" stroke="black" stroke-width="4" class="vaKxyWJi_6"></path>
<path d="M350.099 199.896V254.896" stroke="black" stroke-width="4" class="vaKxyWJi_7"></path>
<path d="M443.459 234.044V289.044" stroke="black" stroke-width="4" class="vaKxyWJi_8"></path>
<style data-made-with="vivus-instant">.vaKxyWJi_0{stroke-dasharray:585 587;stroke-dashoffset:586;animation:vaKxyWJi_draw 2000ms ease-in 0ms forwards;}.vaKxyWJi_1{stroke-dasharray:588 590;stroke-dashoffset:589;animation:vaKxyWJi_draw 2000ms ease-in 375ms forwards;}.vaKxyWJi_2{stroke-dasharray:869 871;stroke-dashoffset:870;animation:vaKxyWJi_draw 2000ms ease-in 750ms forwards;}.vaKxyWJi_3{stroke-dasharray:685 687;stroke-dashoffset:686;animation:vaKxyWJi_draw 2000ms ease-in 1125ms forwards;}.vaKxyWJi_4{stroke-dasharray:437 439;stroke-dashoffset:438;animation:vaKxyWJi_draw 2000ms ease-in 1500ms forwards;}.vaKxyWJi_5{stroke-dasharray:479 481;stroke-dashoffset:480;animation:vaKxyWJi_draw 2000ms ease-in 1875ms forwards;}.vaKxyWJi_6{stroke-dasharray:55 57;stroke-dashoffset:56;animation:vaKxyWJi_draw 2000ms ease-in 2250ms forwards;}.vaKxyWJi_7{stroke-dasharray:55 57;stroke-dashoffset:56;animation:vaKxyWJi_draw 2000ms ease-in 2625ms forwards;}.vaKxyWJi_8{stroke-dasharray:55 57;stroke-dashoffset:56;animation:vaKxyWJi_draw 2000ms ease-in 3000ms forwards;}@keyframes vaKxyWJi_draw{100%{stroke-dashoffset:0;}}@keyframes vaKxyWJi_fade{0%{stroke-opacity:1;}95.65217391304348%{stroke-opacity:1;}100%{stroke-opacity:0;}}</style></svg>
